/* XPM */
static char *result[] = {
/* columns rows colors chars-per-pixel */
"64 64 3 1 ",
"X  c #2CB3C3",
"  c white",
". c None",
/* pixels */
"................................................................",
"...............XX...........XX..XX...........XX.................",
"................XX..........XX..XX..........XX..................",
".................XX.........XX..XX.........XX...................",
"..................XX........XX..XX........XX....................",
"...................XX.......XX..XX.......XX.....................",
"....................XX......XX..XX......XX......................",
".....................XX.....XX..XX.....XX.......................",
"                ................................                ",
"                .......XX...XX..XX...XX.........                ",
"                ........XX..XX..XX..XX..........                ",
"                ................................                ",
"    ........    ........                ........    ........    ",
"    ........    ........                ........    ........    ",
"    ........    ........                ........    ........    ",
"    ........    ........                ........    ........    ",
"    ........                                        ........    ",
"    ........                                        ........    ",
"    ........                                        ........    ",
"    ........                                        ........    ",
"                                                                ",
"                                                                ",
"                                                                ",
"                                                                ",
"........                                                ........",
"........                                                ........",
"........                                                ........",
"........                                                ........",
"........                                                ........",
"........                                                ........",
"........                                                ........",
"........                                                ........",
"........        ........                ........        ........",
"........        ........                ........        ........",
"........        ........                ........        ........",
"........        ........                ........        ........",
"........        ........                ........        ........",
"........        ........                ........        ........",
"........        ........                ........        ........",
"........        ........                ........        ........",
"........                                                ........",
"........                                                ........",
"........                                                ........",
"........                                                ........",
"........                                                ........",
"........                                                ........",
"........                                                ........",
"........              ....            ....              ........",
"........              ....            ....              ........",
"........              ....................              ........",
"........              ....................              ........",
"........                  ............                  ........",
"........                  ............                  ........",
".........                                              .........",
"..........                                            ..........",
"............                                        ............",
"................................................................",
"................................................................",
"................................................................",
"................................................................",
"................................................................",
"................................................................",
"................................................................",
"................................................................",
};
